<svg xmlns="http://www.w3.org/2000/svg" width="51.925" height="53.147" viewBox="0 0 51.925 53.147"><g transform="translate(0 0)"><path d="M245.421,330.007a1.57,1.57,0,0,0,2.219,0l5.6-5.6a1.569,1.569,0,1,0-2.219-2.22l-4.493,4.493-2.049-2.049a1.569,1.569,0,0,0-2.22,2.22Zm0,0" transform="translate(-221.79 -292.897)" fill="#fff"/><path d="M191.563,268.731A12.458,12.458,0,1,0,179.1,256.273a12.472,12.472,0,0,0,12.458,12.458Zm0-21.777a9.319,9.319,0,1,1-9.319,9.319,9.33,9.33,0,0,1,9.319-9.319Zm0,0" transform="translate(-165.6 -223.075)" fill="#fff"/><path d="M95.85,47.341H92.988V45.569a1.569,1.569,0,0,0-3.138,0v1.772H86.766V45.569a1.569,1.569,0,0,0-3.139,0v1.772H66.3V45.569a1.569,1.569,0,0,0-3.139,0v1.772H60.076V45.569a1.569,1.569,0,0,0-3.139,0v1.772H54.075A5.081,5.081,0,0,0,49,52.417V92.072a5.081,5.081,0,0,0,5.075,5.075H95.85a5.081,5.081,0,0,0,5.075-5.075V52.417a5.081,5.081,0,0,0-5.075-5.075Zm1.936,44.73a1.939,1.939,0,0,1-1.936,1.937H54.075a1.939,1.939,0,0,1-1.937-1.937V60.39H97.787ZM52.138,52.417a1.939,1.939,0,0,1,1.937-1.937h2.863v1.772a1.569,1.569,0,0,0,3.139,0V50.48H63.16v1.772a1.569,1.569,0,0,0,3.139,0V50.48H83.627v1.772a1.569,1.569,0,0,0,3.139,0V50.48H89.85v1.772a1.569,1.569,0,0,0,3.139,0V50.48H95.85a1.939,1.939,0,0,1,1.937,1.937v4.834H52.138Zm0,0" transform="translate(-49 -44)" fill="#fff"/></g></svg>