<svg xmlns="http://www.w3.org/2000/svg" width="208.55" height="72.502" viewBox="0 0 208.55 72.502"><g transform="translate(-983.861 -628.294)"><g transform="translate(983.861 628.294)"><path d="M1014.089,684.7l-11.639-20.165,11.656-20.154,19.841.008,9.3-16.081-38.431-.016-20.959,36.235,20.929,36.252,38.431.016-9.289-16.087Z" transform="translate(-983.861 -628.294)" fill="#fff"/><path d="M1026.1,629.312a.75.75,0,0,0-1.418,0l-7.878,13.635c-.39.673-.7,1.237-.7,1.25s.332.577.722,1.25l4.688,8.113c.39.677.071,1.228-.706,1.228H999.236a2.585,2.585,0,0,0-2.075,1.253l-3.2,6.106a3.037,3.037,0,0,0,0,2.507l3.2,6.106a2.584,2.584,0,0,0,2.075,1.253h21.581c.777,0,1.1.554.706,1.228l-4.714,8.161a2.717,2.717,0,0,0,0,2.452l7.878,13.632a.75.75,0,0,0,1.418,0l18.987-32.861a2.729,2.729,0,0,0,0-2.449Z" transform="translate(-962.025 -627.154)" fill="#fff" fill-rule="evenodd"/></g><path d="M1011.765,635.373h6.367V639.1a7.973,7.973,0,0,1,2.748-3.344,6.632,6.632,0,0,1,3.754-1.141,6.963,6.963,0,0,1,3.019.76l-2.313,6.389a5.106,5.106,0,0,0-2.149-.654q-1.711,0-2.9,2.123t-1.183,8.316l.026,1.443v11.96h-7.372Z" transform="translate(62.003 14.038)" fill="#fff"/><path d="M1037.57,639.506l-4.6,4.594q-2.8-2.774-5.088-2.774a3.194,3.194,0,0,0-1.959.532,1.594,1.594,0,0,0-.709,1.318,1.626,1.626,0,0,0,.451,1.1,8.382,8.382,0,0,0,2.217,1.373l2.719,1.356q4.3,2.122,5.906,4.324a9,9,0,0,1-1.292,11.744,11.114,11.114,0,0,1-7.768,2.635,12.35,12.35,0,0,1-10.339-5.055l4.572-4.975a10.547,10.547,0,0,0,3.061,2.458,6.777,6.777,0,0,0,3.116.938,3.7,3.7,0,0,0,2.365-.706,2.046,2.046,0,0,0,.9-1.63q0-1.711-3.238-3.344l-2.5-1.25q-7.182-3.615-7.182-9.054a7.854,7.854,0,0,1,2.707-5.993,9.826,9.826,0,0,1,6.924-2.487,12,12,0,0,1,9.74,4.894Z" transform="translate(73.879 14.038)" fill="#fff"/><path d="M1028.509,631.523h7.358v10.8h4.367v6.329h-4.367v22.973h-7.358V648.652h-3.774v-6.329h3.774Z" transform="translate(90.821 7.175)" fill="#fff"/><path d="M1052.707,646.382h0a7.369,7.369,0,0,0-2.874-3.986,8.359,8.359,0,0,0-4.981-1.534,8.8,8.8,0,0,0-5.4,1.724,9.613,9.613,0,0,0-2.7,3.8Zm7.359,5.793h-23.64a7.871,7.871,0,0,0,2.739,4.968,8.6,8.6,0,0,0,5.674,1.843,9.82,9.82,0,0,0,7.089-2.881l6.2,2.909a14.627,14.627,0,0,1-5.552,4.859,17.34,17.34,0,0,1-7.685,1.579,15.189,15.189,0,0,1-11.238-4.35,14.8,14.8,0,0,1-4.34-10.9,15.3,15.3,0,0,1,4.327-11.135,14.529,14.529,0,0,1,10.848-4.43,15.075,15.075,0,0,1,11.267,4.43q4.34,4.432,4.34,11.7Z" transform="translate(100.992 14.103)" fill="#fff"/><path d="M1069.37,641.32l-6.128,3.367a9.1,9.1,0,0,0-7.365-3.206,9.209,9.209,0,0,0-6.679,2.462,8.371,8.371,0,0,0-2.552,6.305,8.1,8.1,0,0,0,2.455,6.1,8.91,8.91,0,0,0,6.45,2.368,9.375,9.375,0,0,0,7.691-3.367l5.8,3.969q-4.717,6.128-13.313,6.131-7.737,0-12.118-4.582a15.221,15.221,0,0,1,3.692-24.184,17.773,17.773,0,0,1,8.532-2.046,17.322,17.322,0,0,1,7.843,1.737,14.913,14.913,0,0,1,5.69,4.943" transform="translate(123.041 14.103)" fill="#fff"/></g></svg>