<svg xmlns="http://www.w3.org/2000/svg" width="284.144" height="138.167" viewBox="0 0 284.144 138.167"><g transform="translate(-1883.436 -1059.755)"><g transform="translate(1883.436 1059.755)"><path d="M2003.494,1073l-3.639-12.242H1888.027L1884.391,1073l-.955-.283,3.846-12.958H2000.6l3.848,12.958Z" transform="translate(-1883.436 -1059.755)" fill="#fff"/></g><path d="M1884.369,1127.8c-.479,0-.719-.272-.719-.809v-57.225c0-.539.239-.806.719-.806h10.245a.712.712,0,0,1,.806.806V1127a.715.715,0,0,1-.806.809Zm4.672-5.483q0,.629.494.629c.329,0,.5-.21.5-.629v-47.968c0-.3-.167-.449-.5-.449s-.494.152-.494.449Z" transform="translate(0.321 13.774)" fill="#fff"/><path d="M1919.876,1069.771a.715.715,0,0,1,.811-.806h10.33a.713.713,0,0,1,.809.806v57.679a.717.717,0,0,1-.809.811h-9.972a.766.766,0,0,1-.806-.452l-13.12-29.558v29.2a.714.714,0,0,1-.806.811h-10.245c-.479,0-.719-.272-.719-.811v-57.679c0-.539.239-.806.719-.806h10.6a.759.759,0,0,1,.629.449l12.578,29.019Zm6.469,4.582c0-.3-.195-.477-.582-.539s-.586.122-.586.539v46.179l-23.446-46.357a.656.656,0,0,0-.586-.272c-.27,0-.4.152-.4.449v48.425c0,.42.182.629.539.629s.539-.209.539-.629v-46.086l23.359,46.269a.721.721,0,0,0,.719.4.443.443,0,0,0,.45-.494Z" transform="translate(17.818 13.774)" fill="#fff"/><path d="M1941.62,1069.771a.715.715,0,0,1,.811-.806h10.33a.715.715,0,0,1,.811.806v57.679a.718.718,0,0,1-.811.811h-9.973a.767.767,0,0,1-.806-.452l-13.12-29.558v29.2a.715.715,0,0,1-.806.811h-10.244c-.479,0-.719-.272-.719-.811v-57.679c0-.539.239-.806.719-.806h10.6a.758.758,0,0,1,.628.449l12.578,29.019Zm6.469,4.582q0-.446-.582-.539c-.389-.057-.586.122-.586.539v46.179l-23.446-46.357a.655.655,0,0,0-.584-.272c-.272,0-.407.152-.407.449v48.425c0,.42.182.629.539.629s.539-.209.539-.629v-46.086l23.359,46.269a.722.722,0,0,0,.721.4.442.442,0,0,0,.447-.494Z" transform="translate(50.339 13.774)" fill="#fff"/><path d="M1959.034,1068.641q11.5,0,16.531,5.391,3.953,4.308,3.953,13.207v23.629q0,9.164-3.953,13.387a16.139,16.139,0,0,1-6.648,4.04,37.414,37.414,0,0,1-19.9,0,16.155,16.155,0,0,1-6.6-4.04,14.172,14.172,0,0,1-3.009-5.438,26.584,26.584,0,0,1-1.033-7.948v-23.629a25.336,25.336,0,0,1,1.033-7.771,16.069,16.069,0,0,1,3.009-5.525,15.773,15.773,0,0,1,6.649-4A32.964,32.964,0,0,1,1959.034,1068.641Zm-15.006,41.507a18.378,18.378,0,0,0,.856,5.748,11.9,11.9,0,0,0,2.74,4.582q3.594,3.594,10.33,3.6h2.338q6.379,0,10.149-3.731t3.776-10.195v-22.281q0-6.922-3.549-10.511t-10.377-3.6h-2.338q-6.914,0-10.419,3.6t-3.506,10.511Zm13.926,12.758q-6.286,0-9.611-3.324-3.414-3.414-3.414-9.434v-22.281q0-6.472,3.324-9.748t9.7-3.281h2.338q12.754,0,12.755,13.03v22.281a15.221,15.221,0,0,1-.9,5.3,11.635,11.635,0,0,1-2.7,4.22,13.541,13.541,0,0,1-4.088,2.381,14.4,14.4,0,0,1-5.076.856Zm9.616-32.705a13.48,13.48,0,0,0-.719-4.8,7.745,7.745,0,0,0-1.887-2.92,5.941,5.941,0,0,0-2.605-1.44,11.953,11.953,0,0,0-2.875-.357h-1.078q-4.312,0-6.157,2.558a11.719,11.719,0,0,0-1.839,6.963v17.971a13.82,13.82,0,0,0,.719,4.852,7.51,7.51,0,0,0,1.839,2.92,6.235,6.235,0,0,0,2.563,1.435,10.559,10.559,0,0,0,2.875.4h1.078q4.313,0,6.152-2.648a12.44,12.44,0,0,0,1.934-6.963Z" transform="translate(82.161 13.289)" fill="#fff"/><path d="M1981.585,1106.7l10.149-37.192c.24-.362.479-.539.719-.539H2002.7a.82.82,0,0,1,.671.267.671.671,0,0,1,.047.719l-15.545,57.771a.814.814,0,0,1-.718.539h-11.141a.58.58,0,0,1-.629-.539l-15.54-57.771c-.123-.656.147-.986.806-.986h10.334c.237,0,.477.177.719.539Zm-15.184-32.521q-.183-.543-.676-.362t-.314.629l14.917,47.978c.177.659.539,1,1.075,1.033s.929-.314,1.168-1.033l14.375-47.978c.12-.3.015-.494-.314-.582a.5.5,0,0,0-.674.314L1981.4,1122.06Z" transform="translate(114.235 13.774)" fill="#fff"/><path d="M1995.22,1069.5c.12-.362.329-.539.628-.539h11.141c.3,0,.509.177.629.539l15.545,57.766q.176.992-.811.991h-10.24a.576.576,0,0,1-.629-.539l-3.5-12.578h-13.117l-3.417,12.578c-.12.357-.327.539-.626.539h-10.332q-.992,0-.809-.991Zm20.484,53.274a.512.512,0,0,0,.629.362c.3-.06.389-.27.272-.631l-14.375-47.794a1.036,1.036,0,0,0-1.033-.944c-.572-.03-.914.285-1.033.944l-13.926,47.794c-.123.3-.018.511.314.631a.461.461,0,0,0,.671-.27l3.953-13.569h20.394Zm-14.464-47.706,9.972,33.062h-19.766Zm3.953,28.842-3.863-13.569-3.594,13.569Z" transform="translate(143.902 13.774)" fill="#fff"/><g transform="translate(1883.911 1157.299)"><g transform="translate(0 0.277)"><path d="M1884.715,1137.218c0,.232-.137.347-.419.347s-.419-.115-.419-.347v-37.6a.508.508,0,0,1,.419-.419h9.436a18.5,18.5,0,0,1,2.338.209,9.041,9.041,0,0,1,3.042,1.048,7.6,7.6,0,0,1,2.653,2.515,8.092,8.092,0,0,1,1.121,4.542v8.735a10.031,10.031,0,0,1-1.61,6.082q-1.606,2.164-5.73,2.725l5.873,11.877c.092.327.01.524-.247.6s-.429.012-.524-.177l-5.867-12.086h-10.065Zm17.332-29.7a11.946,11.946,0,0,0-.245-2.129,6.071,6.071,0,0,0-1.085-2.448,6.759,6.759,0,0,0-2.513-1.991,10.117,10.117,0,0,0-4.472-.836h-9.017v24.245h8.388a19.025,19.025,0,0,0,3.281-.279,7.393,7.393,0,0,0,2.868-1.116,5.913,5.913,0,0,0,2.024-2.448,9.922,9.922,0,0,0,.771-4.262Z" transform="translate(-1883.252 -1098.578)" fill="#fff"/><path d="M1884.669,1138.563a.954.954,0,0,1-1.043-.973V1100a1.115,1.115,0,0,1,1.043-1.043h9.434a18.631,18.631,0,0,1,2.426.215,9.7,9.7,0,0,1,3.254,1.118,8.206,8.206,0,0,1,2.875,2.718,8.735,8.735,0,0,1,1.223,4.889v8.735a10.688,10.688,0,0,1-1.729,6.454,8.182,8.182,0,0,1-5.3,2.83l5.5,11.126a1.2,1.2,0,0,1-.028,1.008.98.98,0,0,1-.614.462,1.009,1.009,0,0,1-1.245-.494l-5.7-11.747h-9.049v11.325A.954.954,0,0,1,1884.669,1138.563Zm1.043-14.455h7.762a18.218,18.218,0,0,0,3.177-.272,6.8,6.8,0,0,0,2.625-1.021,5.314,5.314,0,0,0,1.81-2.2,9.357,9.357,0,0,0,.709-3.993v-8.735a11.59,11.59,0,0,0-.232-2.017,5.563,5.563,0,0,0-.976-2.2,6.2,6.2,0,0,0-2.289-1.8,9.566,9.566,0,0,0-4.2-.773h-8.39Z" transform="translate(-1883.626 -1098.952)" fill="#fff"/></g><g transform="translate(26.903)"><path d="M1895.843,1132.63a.386.386,0,0,1,.14-.524.426.426,0,0,1,.562.105,7.93,7.93,0,0,0,1.255,1.645,10.741,10.741,0,0,0,2.064,1.642,12.414,12.414,0,0,0,2.862,1.291,11.8,11.8,0,0,0,3.6.524,12.719,12.719,0,0,0,2.236-.242,7.855,7.855,0,0,0,2.69-1.085,8.166,8.166,0,0,0,2.448-2.443,10.509,10.509,0,0,0,1.5-4.263,7.5,7.5,0,0,0-1.6-5.872q-2.029-2.516-7.27-4.959l-2.167-1.048q-2.029-.91-3.739-1.819a16.932,16.932,0,0,1-3-1.991,7.986,7.986,0,0,1-2.024-2.513,7.317,7.317,0,0,1-.734-3.391,7.988,7.988,0,0,1,.871-3.806,7.661,7.661,0,0,1,2.343-2.69,10.517,10.517,0,0,1,3.354-1.572,14.7,14.7,0,0,1,3.981-.524,9.757,9.757,0,0,1,3.214.487,10.051,10.051,0,0,1,2.448,1.223,12.282,12.282,0,0,1,1.782,1.5,16.64,16.64,0,0,1,1.153,1.328c.23.282.23.5,0,.666s-.469.1-.7-.175a10.069,10.069,0,0,0-1.118-1.363,9.437,9.437,0,0,0-1.64-1.363,9.169,9.169,0,0,0-2.2-1.048,9.3,9.3,0,0,0-2.935-.419,14.1,14.1,0,0,0-3.562.452,9.31,9.31,0,0,0-3.112,1.435,7.617,7.617,0,0,0-2.2,2.443,7.519,7.519,0,0,0-.177,6.533,7.219,7.219,0,0,0,1.852,2.274,15.777,15.777,0,0,0,2.83,1.814c1.1.561,2.293,1.118,3.6,1.679l2.233.979q1.887.977,3.706,2.024a15.169,15.169,0,0,1,3.177,2.413,9.535,9.535,0,0,1,2.1,3.145,8.495,8.495,0,0,1,.451,4.225,9.934,9.934,0,0,1-1.048,3.634,9.534,9.534,0,0,1-2.131,2.76,9.254,9.254,0,0,1-3,1.782,10.352,10.352,0,0,1-3.6.629,12.6,12.6,0,0,1-3.038-.384,14.682,14.682,0,0,1-3-1.083,12.275,12.275,0,0,1-2.621-1.71A6.959,6.959,0,0,1,1895.843,1132.63Z" transform="translate(-1894.031 -1098.467)" fill="#fff"/><path d="M1906.7,1139.148a13.486,13.486,0,0,1-3.187-.4,15.578,15.578,0,0,1-3.13-1.128,13.02,13.02,0,0,1-2.752-1.8,7.621,7.621,0,0,1-1.977-2.551l-.018-.035a1,1,0,0,1,.387-1.283,1.039,1.039,0,0,1,1.333.187l.109.147a7.34,7.34,0,0,0,1.161,1.507,10.032,10.032,0,0,0,1.942,1.545,11.937,11.937,0,0,0,2.722,1.228,11.269,11.269,0,0,0,3.41.494,11.942,11.942,0,0,0,2.124-.235,7.171,7.171,0,0,0,2.473-1,7.523,7.523,0,0,0,2.258-2.263,9.965,9.965,0,0,0,1.4-4.011,6.83,6.83,0,0,0-1.475-5.381c-1.288-1.594-3.656-3.2-7.045-4.786l-2.176-1.053c-1.355-.607-2.628-1.225-3.758-1.827a17.628,17.628,0,0,1-3.115-2.066,8.591,8.591,0,0,1-2.179-2.71,7.988,7.988,0,0,1-.8-3.671,8.645,8.645,0,0,1,.946-4.1,8.325,8.325,0,0,1,2.533-2.907,11.247,11.247,0,0,1,3.549-1.665,13.753,13.753,0,0,1,7.567-.025,10.828,10.828,0,0,1,2.6,1.3,12.931,12.931,0,0,1,1.874,1.582,16.829,16.829,0,0,1,1.2,1.383,1.143,1.143,0,0,1,.292.876.963.963,0,0,1-.429.674,1.087,1.087,0,0,1-1.542-.287,10.509,10.509,0,0,0-1.088-1.328,8.936,8.936,0,0,0-1.535-1.275,8.524,8.524,0,0,0-2.057-.973,11.7,11.7,0,0,0-6.142.045,8.75,8.75,0,0,0-2.9,1.335,7.1,7.1,0,0,0-2.021,2.249,6.894,6.894,0,0,0-.162,5.94,6.616,6.616,0,0,0,1.694,2.074,14.874,14.874,0,0,0,2.715,1.742c1.063.544,2.261,1.1,3.564,1.662l2.238.979c1.3.676,2.548,1.355,3.766,2.056a15.938,15.938,0,0,1,3.307,2.513,10.154,10.154,0,0,1,2.236,3.347,9.142,9.142,0,0,1,.494,4.534,10.628,10.628,0,0,1-1.113,3.851,10.339,10.339,0,0,1-2.271,2.94,9.952,9.952,0,0,1-3.207,1.9A10.966,10.966,0,0,1,1906.7,1139.148Zm-9.908-6.389Z" transform="translate(-1894.406 -1098.841)" fill="#fff"/></g><g transform="translate(53.733 0.277)"><path d="M1926.858,1099.2a.455.455,0,0,1,.524.457c.025.3-.15.454-.524.454h-9.853v37.032c0,.235-.15.35-.452.35s-.454-.115-.454-.35v-37.032h-10.344c-.232,0-.347-.152-.347-.454s.115-.457.347-.457Z" transform="translate(-1904.782 -1098.578)" fill="#fff"/><path d="M1916.927,1138.493a.973.973,0,0,1-1.078-.973v-36.411h-9.718a1.084,1.084,0,0,1,0-2.156h21.1a1.078,1.078,0,0,1,1.146,1.031.994.994,0,0,1-.252.786,1.158,1.158,0,0,1-.893.339H1918v36.411A.973.973,0,0,1,1916.927,1138.493Z" transform="translate(-1905.157 -1098.952)" fill="#fff"/></g><g transform="translate(83.434 0.277)"><path d="M1917.308,1099.763a.5.5,0,0,1,.561-.561h16.07q.49,0,.419.457c-.045.3-.185.454-.419.454h-15.723v17.33h12.86c.229,0,.347.162.347.487s-.118.489-.347.489h-12.86v18.238h15.723c.234,0,.374.142.419.42s-.092.419-.419.419h-16.07a.493.493,0,0,1-.561-.559Z" transform="translate(-1916.684 -1098.578)" fill="#fff"/><path d="M1934.313,1138.493h-16.072a1.108,1.108,0,0,1-1.183-1.183v-37.175a1.108,1.108,0,0,1,1.183-1.183h16.072a1.035,1.035,0,0,1,.828.337,1.006,1.006,0,0,1,.208.833,1.039,1.039,0,0,1-1.036.986h-15.1v16.082h12.233a.989.989,0,0,1,.973,1.113.979.979,0,0,1-.973,1.113h-12.233v16.99h15.1a1.029,1.029,0,0,1,1.036.941.965.965,0,0,1-.2.806A1.048,1.048,0,0,1,1934.313,1138.493Z" transform="translate(-1917.058 -1098.952)" fill="#fff"/></g><g transform="translate(108.867 0.135)"><path d="M1939.311,1099.147a21.022,21.022,0,0,1,4.015.385,11.807,11.807,0,0,1,3.6,1.29,7.706,7.706,0,0,1,2.618,2.411,6.412,6.412,0,0,1,1.016,3.669c0,.374-.165.549-.491.524a.469.469,0,0,1-.489-.524,10.5,10.5,0,0,0-.21-1.4,5.541,5.541,0,0,0-1.22-2.376,8.64,8.64,0,0,0-3.078-2.233,13.692,13.692,0,0,0-5.762-.981q-5.731,0-8.385,2.481t-2.658,7.931v16.841q0,5.593,2.937,7.724t8.106,2.129q5.309,0,8.106-2.3t2.792-7.617a.42.42,0,0,1,.841,0q0,6.008-3.109,8.348t-8.63,2.341q-5.87,0-8.84-2.411t-2.972-8.21v-16.841a15.29,15.29,0,0,1,.806-5.346,8.234,8.234,0,0,1,2.306-3.424,8.993,8.993,0,0,1,3.7-1.852A20.381,20.381,0,0,1,1939.311,1099.147Z" transform="translate(-1926.875 -1098.519)" fill="#fff"/><path d="M1939.682,1138.785c-4.045,0-7.15-.856-9.231-2.548-2.124-1.722-3.2-4.647-3.2-8.695V1110.7a15.984,15.984,0,0,1,.843-5.565,8.9,8.9,0,0,1,2.483-3.679,9.6,9.6,0,0,1,3.958-1.981,22.334,22.334,0,0,1,9.286-.182,12.507,12.507,0,0,1,3.786,1.36,8.325,8.325,0,0,1,2.831,2.605,7.062,7.062,0,0,1,1.12,4.018,1.154,1.154,0,0,1-.337.883,1.049,1.049,0,0,1-.823.262,1.088,1.088,0,0,1-1.066-1.145,9.476,9.476,0,0,0-.2-1.281,4.954,4.954,0,0,0-1.093-2.1,8.088,8.088,0,0,0-2.858-2.064,13.222,13.222,0,0,0-5.5-.918c-3.639,0-6.316.776-7.958,2.311s-2.458,4.04-2.458,7.477v16.841c0,3.5.9,5.927,2.678,7.217,1.839,1.333,4.442,2.011,7.739,2.011,3.376,0,5.97-.729,7.709-2.161,1.7-1.408,2.568-3.808,2.568-7.138a1.044,1.044,0,0,1,2.089,0c0,4.2-1.133,7.17-3.359,8.85C1946.518,1137.957,1943.488,1138.785,1939.682,1138.785Z" transform="translate(-1927.249 -1098.895)" fill="#fff"/></g></g><g transform="translate(2027.614 1154.932)"><path d="M1975.926,1102.391a2.667,2.667,0,0,0-2.134.916,3.768,3.768,0,0,0-.784,2.53,3.557,3.557,0,0,0,.794,2.451,2.691,2.691,0,0,0,2.124.894,2.561,2.561,0,0,0,2.086-.879,3.823,3.823,0,0,0,.729-2.5,3.887,3.887,0,0,0-.729-2.523A2.552,2.552,0,0,0,1975.926,1102.391Z" transform="translate(-1893.647 -1091.166)" fill="#fff"/><path d="M1972.919,1111.634a.988.988,0,0,0,.319.756,1.239,1.239,0,0,0,.866.292,1.591,1.591,0,0,0,1.238-.524,1.884,1.884,0,0,0,.477-1.325v-.589l-1.588.2C1973.359,1110.563,1972.919,1110.958,1972.919,1111.634Z" transform="translate(-1893.78 -1079.42)" fill="#fff"/><path d="M1956.529,1107.178a2.248,2.248,0,0,0,1.719-.729,2.605,2.605,0,0,0,.677-1.847v-.871l-2.1.29a3.405,3.405,0,0,0-1.467.484,1.384,1.384,0,0,0-.5,1.223,1.336,1.336,0,0,0,.457,1.046A1.764,1.764,0,0,0,1956.529,1107.178Z" transform="translate(-1920.794 -1089.161)" fill="#fff"/><path d="M1987.385,1103.068a1.981,1.981,0,0,0-1.6-.676,2.259,2.259,0,0,0-1.682.709,3.209,3.209,0,0,0-.854,1.852h4.719A2.841,2.841,0,0,0,1987.385,1103.068Z" transform="translate(-1878.326 -1091.166)" fill="#fff"/><path d="M1962.524,1109.143a1.8,1.8,0,0,0-1.485.659,2.9,2.9,0,0,0-.527,1.859q0,2.516,2.026,2.516,1.939,0,1.939-2.583Q1964.478,1109.142,1962.524,1109.143Z" transform="translate(-1912.336 -1081.067)" fill="#fff"/><path d="M1970.493,1107.848h-1.086v3.813h1.086q2.2,0,2.2-1.929Q1972.694,1107.849,1970.493,1107.848Z" transform="translate(-1899.033 -1083.004)" fill="#fff"/><path d="M1952.75,1109.045a1.451,1.451,0,0,0-1.121.534,2.429,2.429,0,0,0-.577,1.34h3.217Q1954.27,1109.044,1952.75,1109.045Z" transform="translate(-1926.484 -1081.214)" fill="#fff"/><path d="M1966.2,1103.731l-2.106.29a3.41,3.41,0,0,0-1.467.484,1.383,1.383,0,0,0-.494,1.223,1.328,1.328,0,0,0,.457,1.046,1.766,1.766,0,0,0,1.215.4,2.244,2.244,0,0,0,1.717-.729,2.6,2.6,0,0,0,.679-1.847Z" transform="translate(-1909.919 -1089.161)" fill="#fff"/><path d="M1991.554,1109.143a1.651,1.651,0,0,0-1.4.7,3.3,3.3,0,0,0-.512,1.972,2.784,2.784,0,0,0,.484,1.729,1.589,1.589,0,0,0,1.33.634,1.646,1.646,0,0,0,1.353-.644,2.638,2.638,0,0,0,.517-1.7v-.691a2.121,2.121,0,0,0-.492-1.41A1.58,1.58,0,0,0,1991.554,1109.143Z" transform="translate(-1868.776 -1081.067)" fill="#fff"/><path d="M1979.685,1109.182a2.337,2.337,0,0,0,1.991-.973,4.447,4.447,0,0,0,.722-2.7,3.54,3.54,0,0,0-.671-2.286,2.238,2.238,0,0,0-1.83-.829,2.469,2.469,0,0,0-1.959.848,3.121,3.121,0,0,0-.744,2.131v1.218a2.577,2.577,0,0,0,.707,1.837A2.326,2.326,0,0,0,1979.685,1109.182Z" transform="translate(-1887.386 -1091.166)" fill="#fff"/><path d="M1992.683,1103.068a1.984,1.984,0,0,0-1.6-.676,2.259,2.259,0,0,0-1.679.709,3.208,3.208,0,0,0-.854,1.852h4.717A2.843,2.843,0,0,0,1992.683,1103.068Z" transform="translate(-1870.402 -1091.166)" fill="#fff"/><path d="M1941.208,1097.893v42.99h139.965v-42.99Zm98.33,10.255h1.4v1.8h.035a3.059,3.059,0,0,1,.914-1.438,2.077,2.077,0,0,1,1.373-.517,2.342,2.342,0,0,1,.836.12v1.45a1.72,1.72,0,0,0-1.058-.279,1.781,1.781,0,0,0-1.5.844,3.891,3.891,0,0,0-.6,2.3v4.454h-1.4Zm-9.92-4.2h1.4v5.732h.035a3.3,3.3,0,0,1,3.02-1.739,3.211,3.211,0,0,1,2.633,1.17,4.85,4.85,0,0,1,.951,3.145,5.4,5.4,0,0,1-1.068,3.509,3.541,3.541,0,0,1-2.915,1.32,2.874,2.874,0,0,1-2.62-1.468h-.035v1.263h-1.4Zm-17.477,11.116a4.133,4.133,0,0,0,2.516.844q1.842,0,1.842-1.228a1.08,1.08,0,0,0-.157-.594,1.584,1.584,0,0,0-.424-.429,3.5,3.5,0,0,0-.631-.337c-.242-.1-.5-.2-.781-.312a9.459,9.459,0,0,1-1.021-.467,3.047,3.047,0,0,1-.734-.529,2,2,0,0,1-.444-.666,2.375,2.375,0,0,1-.147-.881,2.105,2.105,0,0,1,.279-1.086,2.543,2.543,0,0,1,.751-.8,3.52,3.52,0,0,1,1.07-.479,4.7,4.7,0,0,1,1.243-.162,5.007,5.007,0,0,1,2.029.392v1.415a3.973,3.973,0,0,0-2.219-.631,2.571,2.571,0,0,0-.706.09,1.771,1.771,0,0,0-.544.252,1.215,1.215,0,0,0-.347.387,1.04,1.04,0,0,0-.125.5,1.209,1.209,0,0,0,.125.574,1.288,1.288,0,0,0,.359.409,2.874,2.874,0,0,0,.582.324c.227.095.487.2.776.314a11.149,11.149,0,0,1,1.041.454,3.814,3.814,0,0,1,.786.529,2.069,2.069,0,0,1,.5.681,2.422,2.422,0,0,1-.112,2.037,2.437,2.437,0,0,1-.764.8,3.5,3.5,0,0,1-1.1.467,5.424,5.424,0,0,1-1.305.155,4.982,4.982,0,0,1-2.336-.519Zm-23.391-11.116h1.4v12.932h-1.4Zm-12.029,7.762,2.618-.364q0-2.228-1.8-2.229a4.3,4.3,0,0,0-2.85,1.076v-1.433a5.4,5.4,0,0,1,2.967-.818q3.081,0,3.08,3.257v5.682h-1.4v-1.365h-.033a2.927,2.927,0,0,1-2.688,1.57,2.866,2.866,0,0,1-2.042-.691,2.391,2.391,0,0,1-.739-1.834Q1973.838,1112.117,1976.721,1111.712Zm-14.864,19.423a3.173,3.173,0,0,1-1.053,1.128,4.6,4.6,0,0,1-1.55.616,8.767,8.767,0,0,1-1.864.188,10.43,10.43,0,0,1-1.912-.17,5.655,5.655,0,0,1-1.575-.514v-2.728a5.2,5.2,0,0,0,3.372,1.245,4.052,4.052,0,0,0,.906-.092,2.194,2.194,0,0,0,.649-.262,1.164,1.164,0,0,0,.389-.392,1.011,1.011,0,0,0,.127-.489,1.074,1.074,0,0,0-.2-.641,2.167,2.167,0,0,0-.559-.519,5.522,5.522,0,0,0-.841-.462c-.324-.147-.674-.3-1.048-.452a5.366,5.366,0,0,1-2.136-1.457,3.181,3.181,0,0,1-.706-2.081,3.289,3.289,0,0,1,.386-1.645,3.234,3.234,0,0,1,1.043-1.131,4.647,4.647,0,0,1,1.53-.648,7.7,7.7,0,0,1,1.842-.21,11.34,11.34,0,0,1,1.694.112,7.083,7.083,0,0,1,1.363.354v2.553a3.884,3.884,0,0,0-.671-.377,4.825,4.825,0,0,0-.746-.267,5.251,5.251,0,0,0-.764-.16,5.63,5.63,0,0,0-.719-.05,3.592,3.592,0,0,0-.854.09,2.062,2.062,0,0,0-.649.25,1.2,1.2,0,0,0-.409.389.912.912,0,0,0-.145.507.982.982,0,0,0,.159.552,1.856,1.856,0,0,0,.464.459,4.507,4.507,0,0,0,.724.427c.284.14.606.282.96.432a10.5,10.5,0,0,1,1.32.654,4.555,4.555,0,0,1,1,.779,3.041,3.041,0,0,1,.642,1,3.953,3.953,0,0,1-.167,3.017Zm1.138-24.659a5.837,5.837,0,0,0-2.9-.734,4.454,4.454,0,0,0-3.417,1.408,5.306,5.306,0,0,0-1.308,3.761,5.037,5.037,0,0,0,1.223,3.561,4.167,4.167,0,0,0,3.211,1.328,6.016,6.016,0,0,0,3.189-.819v1.388a7.147,7.147,0,0,1-3.376.719,5.455,5.455,0,0,1-4.18-1.68,6.2,6.2,0,0,1-1.57-4.412,6.5,6.5,0,0,1,1.767-4.741,5.991,5.991,0,0,1,4.477-1.81,7.191,7.191,0,0,1,2.882.5Zm8.5,22.78h-5.7q.135,1.9,2.4,1.9a4.677,4.677,0,0,0,2.531-.681v1.944a6.62,6.62,0,0,1-3.147.649,4.068,4.068,0,0,1-4.452-4.442,4.677,4.677,0,0,1,1.263-3.447,4.2,4.2,0,0,1,3.1-1.273,3.812,3.812,0,0,1,2.958,1.135,4.367,4.367,0,0,1,1.045,3.077Zm.707-12.373h-1.4v-5.033q0-2.729-2.029-2.73a2.209,2.209,0,0,0-1.722.791,2.937,2.937,0,0,0-.7,2.024v4.948h-1.4V1103.95h1.4v5.648h.035a3.172,3.172,0,0,1,2.865-1.654q2.95,0,2.953,3.556Zm7.165,9.718a3.086,3.086,0,0,0-1.887-.631,2.477,2.477,0,0,0-1.836.681,2.512,2.512,0,0,0-.679,1.872,2.481,2.481,0,0,0,.649,1.819,2.376,2.376,0,0,0,1.782.661,3.556,3.556,0,0,0,1.972-.632v2.166a5.323,5.323,0,0,1-2.638.529,4.462,4.462,0,0,1-3.257-1.218,4.215,4.215,0,0,1-1.245-3.149,4.628,4.628,0,0,1,1.335-3.509,4.929,4.929,0,0,1,3.569-1.285,4.6,4.6,0,0,1,2.236.409Zm6.7-.494H1984.1v3.531c0,.911.359,1.365,1.083,1.365a1.843,1.843,0,0,0,.879-.247v2a4,4,0,0,1-1.8.315q-2.852,0-2.852-2.96v-4H1980v-1.987h1.413v-1.887l2.69-.769v2.655h1.962Zm-1.036-15.979a3.894,3.894,0,0,0-.6,2.3v4.454h-1.4v-8.735h1.4v1.8h.035a3.063,3.063,0,0,1,.914-1.438,2.077,2.077,0,0,1,1.373-.517,2.324,2.324,0,0,1,.836.12v1.45a1.714,1.714,0,0,0-1.058-.279A1.777,1.777,0,0,0,1985.026,1110.127Zm9.793,21.677a5.444,5.444,0,0,1-6.925.04,5.059,5.059,0,0,1,.047-6.713,4.894,4.894,0,0,1,3.5-1.225,4.633,4.633,0,0,1,3.412,1.225,4.34,4.34,0,0,1,1.238,3.237A4.611,4.611,0,0,1,1994.819,1131.8Zm2.63-16.286a2.921,2.921,0,0,1-2.685,1.57,2.861,2.861,0,0,1-2.042-.691,2.382,2.382,0,0,1-.739-1.834q0-2.445,2.882-2.85l2.618-.364q0-2.228-1.8-2.229a4.294,4.294,0,0,0-2.848,1.076v-1.433a5.4,5.4,0,0,1,2.967-.818q3.077,0,3.077,3.257v5.682h-1.4v-1.365Zm5.743,11.033a2.345,2.345,0,0,0-1.136-.264,1.639,1.639,0,0,0-1.375.644,2.81,2.81,0,0,0-.492,1.752v4.173h-2.7v-8.735h2.7v1.62h.033a2.33,2.33,0,0,1,2.3-1.774,1.774,1.774,0,0,1,.669.1Zm2.955-10.881a2.462,2.462,0,0,1-.764.8,3.513,3.513,0,0,1-1.1.467,5.4,5.4,0,0,1-1.3.155,4.992,4.992,0,0,1-2.338-.519v-1.5a4.139,4.139,0,0,0,2.516.844q1.842,0,1.844-1.228a1.08,1.08,0,0,0-.157-.594,1.6,1.6,0,0,0-.427-.429,3.338,3.338,0,0,0-.631-.337c-.239-.1-.5-.2-.779-.312a9.246,9.246,0,0,1-1.021-.467,3,3,0,0,1-.734-.529,1.965,1.965,0,0,1-.444-.666,2.374,2.374,0,0,1-.15-.881,2.083,2.083,0,0,1,.282-1.086,2.535,2.535,0,0,1,.749-.8,3.539,3.539,0,0,1,1.073-.479,4.671,4.671,0,0,1,1.241-.162,5.017,5.017,0,0,1,2.031.392v1.415a3.972,3.972,0,0,0-2.219-.631,2.559,2.559,0,0,0-.706.09,1.771,1.771,0,0,0-.544.252,1.223,1.223,0,0,0-.35.387,1.038,1.038,0,0,0-.122.5,1.209,1.209,0,0,0,.122.574,1.3,1.3,0,0,0,.362.409,2.8,2.8,0,0,0,.579.324c.229.095.489.2.779.314a11.194,11.194,0,0,1,1.041.454,3.781,3.781,0,0,1,.784.529,2.035,2.035,0,0,1,.5.681,2.408,2.408,0,0,1-.11,2.037Zm10.3,11.832a5.263,5.263,0,0,1-3.543,1.138h-1.318v4.215h-2.752v-12.231h4.315q4.627,0,4.624,3.9A3.743,3.743,0,0,1,2016.444,1127.5Zm9.339,5.353h-2.553V1131.6h-.032a2.842,2.842,0,0,1-2.6,1.468,2.724,2.724,0,0,1-2-.719,2.59,2.59,0,0,1-.729-1.927q0-2.538,3.01-2.933l2.371-.314q0-1.433-1.553-1.435a5.3,5.3,0,0,0-2.967.928v-2.029a6.673,6.673,0,0,1,1.54-.511,8.1,8.1,0,0,1,1.777-.222q3.736,0,3.738,3.729Zm-2.4-15.767a4.037,4.037,0,0,1-3.092-1.225,4.529,4.529,0,0,1-1.156-3.244,4.711,4.711,0,0,1,1.2-3.437,4.311,4.311,0,0,1,3.25-1.238,3.915,3.915,0,0,1,3.047,1.2,4.765,4.765,0,0,1,1.1,3.334,4.692,4.692,0,0,1-1.183,3.349A4.133,4.133,0,0,1,2023.384,1117.087Zm10.8,9.513a3.1,3.1,0,0,0-1.887-.631,2.469,2.469,0,0,0-1.837.681,2.512,2.512,0,0,0-.679,1.872,2.483,2.483,0,0,0,.649,1.819,2.376,2.376,0,0,0,1.782.661,3.562,3.562,0,0,0,1.972-.632v2.166a5.323,5.323,0,0,1-2.638.529,4.463,4.463,0,0,1-3.257-1.218,4.215,4.215,0,0,1-1.245-3.149,4.63,4.63,0,0,1,1.335-3.509,4.927,4.927,0,0,1,3.566-1.285,4.61,4.61,0,0,1,2.239.409Zm6.933,6.254-2.788-4.332h-.035v4.332h-2.7v-12.932h2.7v8.23h.035l2.6-4.033h3.2l-3.132,4.1,3.352,4.632Zm6.6,0h-2.7v-8.735h2.7Zm-.209-10.509a1.6,1.6,0,0,1-1.121.392,1.585,1.585,0,0,1-1.121-.4,1.305,1.305,0,0,1-.434-.993,1.263,1.263,0,0,1,.434-.991,1.827,1.827,0,0,1,2.241,0,1.267,1.267,0,0,1,.429.991A1.3,1.3,0,0,1,2047.5,1122.345Zm-1.779-6.449a4.877,4.877,0,0,1-1.059-3.349,4.772,4.772,0,0,1,1.156-3.322,3.7,3.7,0,0,1,2.87-1.282,3.282,3.282,0,0,1,2.653,1.108,4.625,4.625,0,0,1,.941,3.08v.734h-6.169a3.265,3.265,0,0,0,.786,2.254,2.71,2.71,0,0,0,2.064.791,4.287,4.287,0,0,0,2.712-.973v1.315a5.075,5.075,0,0,1-3.044.836A3.7,3.7,0,0,1,2045.725,1115.9Zm12.34,16.958h-2.687V1128q0-2.029-1.447-2.031a1.438,1.438,0,0,0-1.153.539,2.044,2.044,0,0,0-.452,1.365v4.981h-2.7v-8.735h2.7v1.383h.035a3.083,3.083,0,0,1,2.8-1.6q2.9,0,2.9,3.6Zm-.177-20.307a4.774,4.774,0,0,1,1.155-3.322,3.7,3.7,0,0,1,2.87-1.282,3.283,3.283,0,0,1,2.653,1.108,4.625,4.625,0,0,1,.941,3.08v.734h-6.169a3.276,3.276,0,0,0,.784,2.254,2.719,2.719,0,0,0,2.066.791,4.294,4.294,0,0,0,2.713-.973v1.315a5.076,5.076,0,0,1-3.045.836,3.7,3.7,0,0,1-2.91-1.19A4.88,4.88,0,0,1,2057.889,1112.547Zm10.526,19.309a4.945,4.945,0,0,1-1.41,3.766,5.7,5.7,0,0,1-4.078,1.335,6.486,6.486,0,0,1-2.8-.5v-2.268a5.389,5.389,0,0,0,2.723.786,2.945,2.945,0,0,0,2.116-.721,2.6,2.6,0,0,0,.751-1.959v-.691h-.035a3.008,3.008,0,0,1-2.723,1.468,3.271,3.271,0,0,1-2.653-1.178,4.766,4.766,0,0,1-.981-3.155,5.318,5.318,0,0,1,1.093-3.524,3.567,3.567,0,0,1,2.875-1.305,2.656,2.656,0,0,1,2.388,1.228h.035v-1.013h2.7Zm.254-14.974h-1.4V1103.95h1.4Z" transform="translate(-1941.208 -1097.893)" fill="#fff"/></g><g transform="translate(1883.549 1072.028)"><path d="M2149.266,1065.674h-3.744v-1h3.744Zm-7.487,0h-3.744v-1h3.744Zm-7.487,0h-3.743v-1h3.743Zm-7.487,0h-3.743v-1h3.743Zm-7.487,0h-3.743v-1h3.743Zm-7.487,0h-3.744v-1h3.744Zm-7.487,0H2100.6v-1h3.744Zm-7.487,0h-3.744v-1h3.744Zm-7.487,0h-3.744v-1h3.744Zm-7.487,0h-3.743v-1h3.743Zm-7.487,0h-3.743v-1h3.743Zm-7.487,0h-3.743v-1h3.743Zm-7.487,0h-3.744v-1h3.744Zm-7.487,0h-3.744v-1h3.744Zm-7.487,0h-3.744v-1h3.744Zm-7.487,0h-3.743v-1h3.743Zm-7.487,0h-3.743v-1h3.743Zm-7.487,0h-3.743v-1h3.743Zm-7.487,0h-3.744v-1h3.744Zm-7.487,0h-3.744v-1h3.744Zm-7.487,0h-3.744v-1h3.744Zm-7.487,0H1988.3v-1h3.744Zm-7.487,0h-3.743v-1h3.743Zm-7.487,0h-3.743v-1h3.743Zm-7.487,0h-3.743v-1h3.743Zm-7.487,0h-3.744v-1h3.744Zm-7.487,0h-3.744v-1h3.744Zm-7.487,0h-3.744v-1h3.744Zm-7.487,0h-3.744v-1h3.744Zm-7.487,0H1928.4v-1h3.743Zm-7.487,0h-3.743v-1h3.743Zm-7.487,0h-3.743v-1h3.743Zm-7.487,0h-3.744v-1h3.744Zm-7.487,0h-3.744v-1h3.744Zm-7.487,0h-3.744v-1h3.744Zm-7.487,0h-3.743v-1h3.743Z" transform="translate(-1883.481 -1064.673)" fill="#fff"/></g></g></svg>