<svg xmlns="http://www.w3.org/2000/svg" width="53.424" height="53.424" viewBox="0 0 53.424 53.424"><g transform="translate(0 0)"><path d="M134.712,108a26.712,26.712,0,1,0,26.712,26.712A26.7,26.7,0,0,0,134.712,108Zm19.752,28.277h3.776a23.48,23.48,0,0,1-5.792,13.957l-1.619-1.619a1.565,1.565,0,1,0-2.213,2.213l1.619,1.619a23.48,23.48,0,0,1-13.957,5.792v-2.732a1.565,1.565,0,1,0-3.13,0v2.732a23.48,23.48,0,0,1-13.957-5.792l1.619-1.619a1.565,1.565,0,1,0-2.213-2.213l-1.619,1.619a23.48,23.48,0,0,1-5.792-13.957h2.732a1.565,1.565,0,1,0,0-3.13h-2.732a23.48,23.48,0,0,1,5.792-13.957l1.619,1.619a1.565,1.565,0,1,0,2.213-2.213l-1.619-1.619a23.48,23.48,0,0,1,13.957-5.792v2.732a1.565,1.565,0,1,0,3.13,0v-2.732a23.48,23.48,0,0,1,13.957,5.792l-1.619,1.619a1.565,1.565,0,1,0,2.213,2.213l1.619-1.619a23.48,23.48,0,0,1,5.792,13.957h-3.776a1.565,1.565,0,0,0,0,3.13Zm0,0" transform="translate(-108 -108)" fill="#fff"/><path d="M300.191,198.808H291.88v-12.97a1.565,1.565,0,1,0-3.13,0v14.535a1.565,1.565,0,0,0,1.565,1.565h9.876a1.565,1.565,0,1,0,0-3.13Zm0,0" transform="translate(-263.603 -173.662)" fill="#fff"/></g></svg>